<svg width="18" height="20" viewBox="0 0 18 20" fill="none" xmlns="http://www.w3.org/2000/svg">
<path fill-rule="evenodd" clip-rule="evenodd" d="M15.465 2.53085C13.9851 1.0842 11.5768 1.0842 10.0969 2.53085L3.03515 9.43399C0.90074 11.5204 0.900738 14.8938 3.03515 16.9802C5.18191 19.0788 8.67135 19.0788 10.8181 16.9802L14.5584 13.324C14.8427 13.046 15.2968 13.0531 15.5725 13.3397C15.8482 13.6263 15.8413 14.084 15.5569 14.362L11.8167 18.0182C9.11352 20.6606 4.73974 20.6606 2.03661 18.0182C-0.678872 15.3637 -0.678869 11.0505 2.03661 8.39603L9.09841 1.49289C11.1347 -0.497631 14.4273 -0.497629 16.4635 1.49289C18.5122 3.49549 18.5122 6.75181 16.4635 8.75441L9.42613 15.6337C8.05672 16.9723 5.84533 16.9723 4.47592 15.6337C3.09416 14.283 3.09415 12.0836 4.47592 10.7328L9.818 5.51078C10.1023 5.23283 10.5564 5.23986 10.8321 5.52648C11.1079 5.81311 11.1009 6.27079 10.8165 6.54874L5.47445 11.7708C4.67376 12.5535 4.67376 13.813 5.47445 14.5957C6.28749 15.3905 7.61455 15.3905 8.4276 14.5957L15.465 7.71645C16.9325 6.28187 16.9325 3.96543 15.465 2.53085Z" fill="#2B333E"/>
</svg>
